HIERARCHY
ROOT Hips
{
	OFFSET 0.00 0.00 0.00
	CHANNELS 6 Xposition Yposition Zposition Xrotation Yrotation Zrotation
	JOINT Spine
	{
		OFFSET 0.00000 1.70439 2.55658
		CHANNELS 3 Xrotation Yrotation Zrotation
		JOINT Spine1
		{
			OFFSET 0.00000 0.59193 3.35699
			CHANNELS 3 Xrotation Yrotation Zrotation
			JOINT Spine2
			{
				OFFSET 0.00000 0.29710 3.39581
				CHANNELS 3 Xrotation Yrotation Zrotation
				JOINT Spine3
				{
					OFFSET 0.00000 0.00000 3.40878
					CHANNELS 3 Xrotation Yrotation Zrotation
					JOINT Neck
					{
						OFFSET 0.00000 -1.27828 8.94804
						CHANNELS 3 Xrotation Yrotation Zrotation
						JOINT Head
						{
							OFFSET 0.00000 -0.81390 4.61586
							CHANNELS 3 Xrotation Yrotation Zrotation
							End Site
							{
								OFFSET 0.00000 0.00001 5.51796
							}
						}
					}
					JOINT RightShoulder
					{
						OFFSET -1.18875 -1.98124 6.41925
						CHANNELS 3 Xrotation Yrotation Zrotation
						JOINT RightArm
						{
							OFFSET -5.90412 0.00000 0.00000
							CHANNELS 3 Xrotation Yrotation Zrotation
							JOINT RightForeArm
							{
								OFFSET -11.94674 0.00000 0.00000
								CHANNELS 3 Xrotation Yrotation Zrotation
								JOINT RightHand
								{
									OFFSET -10.17720 0.00000 0.00000
									CHANNELS 3 Xrotation Yrotation Zrotation
									JOINT RightHandEnd
									{
										OFFSET -2.84518 0.00000 0.00000
										CHANNELS 3 Xrotation Yrotation Zrotation
										End Site
										{
											OFFSET -2.84518 0.00000 0.00000
										}
									}
									JOINT RightHandThumb1
									{
										OFFSET -1.13807 -1.89679 -0.75871
										CHANNELS 3 Yrotation Xrotation Zrotation
										End Site
										{
											OFFSET -2.74823 -0.73639 0.00000
										}
									}
								}
							}
						}
					}
					JOINT LeftShoulder
					{
						OFFSET 1.18875 -1.98124 6.41925
						CHANNELS 3 Xrotation Yrotation Zrotation
						JOINT LeftArm
						{
							OFFSET 5.90412 0.00000 0.00000
							CHANNELS 3 Xrotation Yrotation Zrotation
							JOINT LeftForeArm
							{
								OFFSET 11.94674 0.00000 0.00000
								CHANNELS 3 Xrotation Yrotation Zrotation
								JOINT LeftHand
								{
									OFFSET 10.17720 0.00000 0.00000
									CHANNELS 3 Xrotation Yrotation Zrotation
									JOINT LeftHandEnd
									{
										OFFSET 2.84518 0.00000 0.00000
										CHANNELS 3 Xrotation Yrotation Zrotation
										End Site
										{
											OFFSET 2.84518 0.00000 0.00000
										}
									}
									JOINT LeftHandThumb1
									{
										OFFSET 1.13807 -1.89679 -0.75871
										CHANNELS 3 Yrotation Xrotation Zrotation
										End Site
										{
											OFFSET 2.74823 -0.73639 0.00000
										}
									}
								}
							}
						}
					}
				}
			}
		}
	}
	JOINT RightUpLeg
	{
		OFFSET -3.52662 0.00000 -1.03025
		CHANNELS 3 Xrotation Yrotation Zrotation
		JOINT RightLeg
		{
			OFFSET 0.00001 0.00000 -17.80159
			CHANNELS 3 Xrotation Yrotation Zrotation
			JOINT RightFoot
			{
				OFFSET 0.00001 0.00000 -16.85992
				CHANNELS 3 Xrotation Yrotation Zrotation
				JOINT RightToeBase
				{
					OFFSET 0.00000 -5.42953 -1.97619
					CHANNELS 3 Xrotation Yrotation Zrotation
					End Site
					{
						OFFSET 0.00000 -2.85300 -0.00000
					}
				}
			}
		}
	}
	JOINT LeftUpLeg
	{
		OFFSET 3.52662 0.00000 -1.03025
		CHANNELS 3 Xrotation Yrotation Zrotation
		JOINT LeftLeg
		{
			OFFSET 0.00001 0.00000 -17.80159
			CHANNELS 3 Xrotation Yrotation Zrotation
			JOINT LeftFoot
			{
				OFFSET 0.00001 0.00000 -16.85992
				CHANNELS 3 Xrotation Yrotation Zrotation
				JOINT LeftToeBase
				{
					OFFSET 0.00000 -5.42953 -1.97619
					CHANNELS 3 Xrotation Yrotation Zrotation
					End Site
					{
						OFFSET 0.00000 -2.85300 -0.00000
					}
				}
			}
		}
	}
}
MOTION
Frames: 12
Frame Time: 0.008342
 10.5788 -3.9392 38.0345 -0.0099 0.9983 177.9327 0.8487 -0.4818 -0.6465 0.6528 0.0916 -0.1533 1.7840 -2.5421 -2.1417 -0.0673 0.0697 0.4982 -1.1417 -0.6738 -1.3090 -6.1044 2.0070 3.7610 -0.3608 11.7513 -2.2156 -4.8999 1.7972 -1.9730 0.0000 0.0000 9.3532 -4.0962 17.4586 -10.8565 0.0000 0.0000 0.0000 -0.0000 -0.0000 0.0000 -3.1104 -10.6251 -4.5811 4.5457 5.5654 1.7386 -0.0000 -0.0000 -11.4933 -8.0673 -15.4146 -0.4894 0.0000 -0.0000 -0.0000 0.0000 -0.0000 -0.0000 -1.2632 8.3142 -35.3849 14.6065 0.0000 0.0000 -12.1596 -7.5040 -2.8730 4.4487 0.0000 0.0000 -1.5886 -3.7065 10.9846 10.8820 0.0000 0.0000 -8.5110 15.3103 4.6224 -2.6600 0.0000 -0.0000
 10.5778 -3.9489 38.0349 0.0240 0.9862 177.9986 0.8711 -0.4811 -0.6499 0.6571 0.1032 -0.1523 1.7894 -2.5406 -2.1733 -0.0674 0.0786 0.4982 -1.1702 -0.7612 -1.3639 -6.1098 2.0095 3.7786 -0.3999 11.7228 -2.2646 -4.8905 1.8216 -1.9586 0.0000 0.0000 9.3513 -4.0783 17.4933 -10.8377 0.0000 0.0000 0.0000 0.0000 -0.0000 -0.0000 -3.0893 -10.6393 -4.6143 4.5410 5.5771 1.7532 -0.0000 -0.0000 -11.4779 -8.0841 -15.4269 -0.4970 0.0000 0.0000 0.0000 -0.0000 0.0000 -0.0000 -1.2023 8.2892 -35.4602 14.5451 0.0000 0.0000 -12.1293 -7.5031 -2.8634 4.4449 0.0000 0.0000 -1.5896 -3.7159 10.9340 10.9010 0.0000 0.0000 -8.5018 15.2982 4.6125 -2.6537 0.0000 -0.0000
 10.5769 -3.9610 38.0357 0.0749 0.9653 178.0807 0.9066 -0.4865 -0.6533 0.6649 0.1189 -0.1539 1.7947 -2.5366 -2.2079 -0.0677 0.0885 0.4954 -1.2070 -0.8669 -1.4323 -6.1148 2.0063 3.7980 -0.4482 11.6882 -2.3235 -4.8702 1.8471 -1.9420 0.0000 0.0000 9.3505 -4.0620 17.5297 -10.8073 -0.0000 -0.0000 0.0000 -0.0000 -0.0000 -0.0000 -3.0643 -10.6543 -4.6505 4.5300 5.5917 1.7664 -0.0000 -0.0000 -11.4649 -8.1108 -15.4483 -0.5121 0.0000 -0.0000 0.0000 0.0000 -0.0000 -0.0000 -1.1122 8.2468 -35.5504 14.4549 0.0000 0.0000 -12.0865 -7.4970 -2.8558 4.4412 0.0000 0.0000 -1.5835 -3.7337 10.8740 10.9281 0.0000 0.0000 -8.4911 15.2784 4.5989 -2.6482 0.0000 -0.0000
 10.5758 -3.9756 38.0368 0.1349 0.9400 178.1765 0.9485 -0.4934 -0.6576 0.6724 0.1353 -0.1534 1.8022 -2.5304 -2.2498 -0.0682 0.1011 0.4918 -1.2519 -0.9863 -1.5113 -6.1191 1.9967 3.8165 -0.5029 11.6509 -2.3903 -4.8407 1.8693 -1.9234 0.0000 0.0000 9.3507 -4.0466 17.5629 -10.7671 -0.0000 0.0000 0.0000 0.0000 -0.0000 0.0000 -3.0379 -10.6662 -4.6879 4.5137 5.6071 1.7771 -0.0000 -0.0000 -11.4574 -8.1453 -15.4807 -0.5339 -0.0000 -0.0000 -0.0000 -0.0000 -0.0000 0.0000 -1.0050 8.1928 -35.6493 14.3418 0.0000 0.0000 -12.0344 -7.4843 -2.8530 4.4383 0.0000 0.0000 -1.5793 -3.7546 10.8029 10.9644 0.0000 0.0000 -8.4794 15.2482 4.5866 -2.6442 0.0000 -0.0000
 10.5745 -3.9922 38.0383 0.2071 0.9092 178.2830 1.0001 -0.5033 -0.6627 0.6798 0.1512 -0.1503 1.8113 -2.5220 -2.2982 -0.0692 0.1160 0.4872 -1.3021 -1.1130 -1.5964 -6.1214 1.9794 3.8307 -0.5618 11.6144 -2.4594 -4.8007 1.8839 -1.9059 0.0000 0.0000 9.3511 -4.0346 17.5874 -10.7171 0.0000 0.0000 -0.0000 0.0000 -0.0000 -0.0000 -3.0105 -10.6745 -4.7236 4.4915 5.6241 1.7826 -0.0000 -0.0000 -11.4566 -8.1877 -15.5247 -0.5637 -0.0000 -0.0000 -0.0000 -0.0000 0.0000 -0.0000 -0.8768 8.1262 -35.7578 14.2053 0.0000 0.0000 -11.9719 -7.4662 -2.8512 4.4363 0.0000 0.0000 -1.5721 -3.7799 10.7252 11.0096 0.0000 0.0000 -8.4671 15.2066 4.5742 -2.6422 0.0000 -0.0000
 10.5730 -4.0105 38.0400 0.2821 0.8719 178.3965 1.0497 -0.5195 -0.6662 0.6901 0.1649 -0.1509 1.8213 -2.5084 -2.3439 -0.0701 0.1327 0.4792 -1.3557 -1.2403 -1.6838 -6.1223 1.9542 3.8384 -0.6220 11.5796 -2.5287 -4.7515 1.8891 -1.8881 0.0000 0.0000 9.3493 -4.0263 17.5979 -10.6606 0.0000 0.0000 -0.0000 0.0000 -0.0000 0.0000 -2.9851 -10.6765 -4.7569 4.4642 5.6414 1.7822 -0.0000 -0.0000 -11.4642 -8.2361 -15.5798 -0.6014 0.0000 -0.0000 0.0000 -0.0000 -0.0000 -0.0000 -0.7398 8.0461 -35.8671 14.0489 0.0000 0.0000 -11.8996 -7.4425 -2.8554 4.4350 0.0000 0.0000 -1.5722 -3.8115 10.6452 11.0666 0.0000 0.0000 -8.4559 15.1534 4.5611 -2.6423 0.0000 -0.0000
 10.5712 -4.0299 38.0420 0.3615 0.8306 178.5126 1.1004 -0.5401 -0.6688 0.7012 0.1759 -0.1522 1.8324 -2.4909 -2.3891 -0.0715 0.1502 0.4691 -1.4093 -1.3595 -1.7674 -6.1204 1.9208 3.8369 -0.6804 11.5512 -2.5914 -4.6931 1.8813 -1.8723 0.0000 0.0000 9.3427 -4.0213 17.5881 -10.6007 -0.0000 -0.0000 0.0000 0.0000 -0.0000 0.0000 -2.9615 -10.6718 -4.7852 4.4318 5.6606 1.7743 -0.0000 -0.0000 -11.4807 -8.2896 -15.6447 -0.6467 -0.0000 0.0000 0.0000 -0.0000 0.0000 0.0000 -0.5942 7.9576 -35.9772 13.8782 0.0000 0.0000 -11.8194 -7.4159 -2.8613 4.4339 0.0000 0.0000 -1.5747 -3.8463 10.5658 11.1330 0.0000 0.0000 -8.4460 15.0886 4.5484 -2.6453 0.0000 -0.0000
 10.5692 -4.0497 38.0441 0.4426 0.7852 178.6276 1.1496 -0.5662 -0.6704 0.7124 0.1828 -0.1537 1.8444 -2.4695 -2.4310 -0.0729 0.1688 0.4564 -1.4596 -1.4642 -1.8430 -6.1160 1.8801 3.8244 -0.7342 11.5316 -2.6433 -4.6282 1.8585 -1.8602 0.0000 0.0000 9.3301 -4.0189 17.5534 -10.5419 -0.0000 0.0000 -0.0000 -0.0000 -0.0000 0.0000 -2.9419 -10.6591 -4.8078 4.3984 5.6813 1.7573 -0.0000 -0.0000 -11.5054 -8.3441 -15.7171 -0.6985 -0.0000 0.0000 0.0000 0.0000 -0.0000 -0.0000 -0.4441 7.8619 -36.0863 13.6976 0.0000 0.0000 -11.7320 -7.3887 -2.8670 4.4322 0.0000 0.0000 -1.5809 -3.8848 10.4905 11.2089 0.0000 0.0000 -8.4384 15.0139 4.5356 -2.6505 0.0000 -0.0000
 10.5667 -4.0694 38.0464 0.5234 0.7376 178.7375 1.1956 -0.5973 -0.6706 0.7236 0.1853 -0.1562 1.8571 -2.4448 -2.4676 -0.0744 0.1873 0.4413 -1.5043 -1.5468 -1.9059 -6.1076 1.8333 3.7997 -0.7805 11.5233 -2.6805 -4.5606 1.8195 -1.8517 0.0000 0.0000 9.3090 -4.0207 17.4908 -10.4858 0.0000 -0.0000 0.0000 -0.0000 0.0000 0.0000 -2.9258 -10.6382 -4.8239 4.3642 5.7044 1.7313 -0.0000 -0.0000 -11.5374 -8.3944 -15.7935 -0.7538 0.0000 -0.0000 -0.0000 0.0000 -0.0000 0.0000 -0.2943 7.7637 -36.1938 13.5139 0.0000 0.0000 -11.6395 -7.3639 -2.8693 4.4292 0.0000 0.0000 -1.5901 -3.9252 10.4224 11.2921 0.0000 0.0000 -8.4334 14.9315 4.5230 -2.6574 0.0000 -0.0000
 10.5639 -4.0885 38.0487 0.6018 0.6884 178.8394 1.2365 -0.6331 -0.6698 0.7340 0.1830 -0.1586 1.8707 -2.4175 -2.4980 -0.0755 0.2055 0.4242 -1.5411 -1.6030 -1.9532 -6.0963 1.7822 3.7624 -0.8179 11.5275 -2.7000 -4.4931 1.7648 -1.8474 0.0000 0.0000 9.2784 -4.0248 17.3995 -10.4382 -0.0000 0.0000 -0.0000 -0.0000 -0.0000 0.0000 -2.9132 -10.6092 -4.8336 4.3309 5.7300 1.6957 -0.0000 -0.0000 -11.5749 -8.4412 -15.8698 -0.8124 0.0000 0.0000 0.0000 0.0000 0.0000 0.0000 -0.1485 7.6657 -36.2996 13.3327 0.0000 0.0000 -11.5431 -7.3444 -2.8656 4.4240 0.0000 0.0000 -1.6027 -3.9673 10.3638 11.3815 0.0000 0.0000 -8.4315 14.8445 4.5100 -2.6657 0.0000 -0.0000
 10.5608 -4.1065 38.0509 0.6767 0.6394 178.9309 1.2717 -0.6723 -0.6675 0.7435 0.1764 -0.1618 1.8849 -2.3886 -2.5207 -0.0763 0.2222 0.4057 -1.5689 -1.6293 -1.9819 -6.0806 1.7285 3.7138 -0.8449 11.5443 -2.7007 -4.4300 1.6966 -1.8461 0.0000 0.0000 9.2366 -4.0304 17.2801 -10.4013 0.0000 0.0000 0.0000 -0.0000 0.0000 0.0000 -2.9031 -10.5733 -4.8377 4.2989 5.7600 1.6525 -0.0000 -0.0000 -11.6166 -8.4814 -15.9441 -0.8712 -0.0000 -0.0000 0.0000 0.0000 0.0000 -0.0000 -0.0102 7.5723 -36.4059 13.1605 0.0000 0.0000 -11.4451 -7.3333 -2.8510 4.4153 0.0000 0.0000 -1.6172 -4.0095 10.3159 11.4746 0.0000 0.0000 -8.4327 14.7565 4.4970 -2.6744 0.0000 -0.0000
 10.5575 -4.1234 38.0530 0.7447 0.5903 179.0103 1.2976 -0.7156 -0.6634 0.7529 0.1655 -0.1665 1.8993 -2.3577 -2.5343 -0.0763 0.2371 0.3868 -1.5878 -1.6263 -1.9931 -6.0616 1.6754 3.6557 -0.8613 11.5728 -2.6834 -4.3750 1.6168 -1.8468 0.0000 0.0000 9.1843 -4.0378 17.1382 -10.3750 0.0000 0.0000 0.0000 0.0000 -0.0000 -0.0000 -2.8952 -10.5307 -4.8379 4.2712 5.7928 1.6019 -0.0000 -0.0000 -11.6594 -8.5139 -16.0101 -0.9287 -0.0000 -0.0000 -0.0000 0.0000 0.0000 0.0000 0.1158 7.4841 -36.5114 13.0008 0.0000 0.0000 -11.3465 -7.3321 -2.8259 4.4025 0.0000 0.0000 -1.6364 -4.0530 10.2803 11.5707 0.0000 0.0000 -8.4372 14.6716 4.4826 -2.6830 0.0000 -0.0000
